<svg width="24" height="24" viewBox="0 0 24 24" fill="none" xmlns="http://www.w3.org/2000/svg">
<path fill-rule="evenodd" clip-rule="evenodd" d="M22 10.4746V22.3389L2 20.3047V8.10156C3.62715 4.84748 8.55348 2.67803 10.8135 2L22 10.4746ZM13.167 7.96875C11.7758 7.74708 10.1705 8.05161 8.7627 9.4668C7.129 11.1092 6.81299 13.1015 7.28418 14.7969C7.73871 16.4319 8.9441 17.8445 10.4189 18.374C11.4215 18.734 12.4005 18.8415 13.3809 18.6699C14.3521 18.4999 15.26 18.0678 16.1445 17.4453L14.9736 15.7822C14.2594 16.2848 13.6273 16.5623 13.0293 16.667C12.4404 16.77 11.8205 16.7163 11.1064 16.46C10.3429 16.1858 9.54924 15.3493 9.24414 14.252C8.95594 13.2148 9.11995 11.9916 10.2041 10.9014C11.1021 9.9987 12.0288 9.84751 12.8457 9.97754C13.7188 10.1167 14.4884 10.5883 14.8799 10.9404L16.2393 9.42773C15.6181 8.8691 14.5018 8.1816 13.167 7.96875Z" fill="white"/>
</svg>
