<svg width="24" height="24" viewBox="0 0 24 24" fill="none" xmlns="http://www.w3.org/2000/svg">
<path d="M19.5131 16.6932L12.6441 21.5457C12.4557 21.6788 12.2307 21.7502 12 21.7502C11.7694 21.7502 11.5444 21.6788 11.3559 21.5457L4.48689 16.6932C3.6046 16.0609 2.93505 15.1756 2.56677 14.1544C2.19849 13.1333 2.14884 12.0244 2.42439 10.9745L4.28907 3.84386C4.34844 3.61215 4.48047 3.40556 4.66581 3.25435C4.85115 3.10314 5.08005 3.01528 5.31896 3.00365C5.55788 2.99201 5.79423 3.05721 5.99339 3.18969C6.19255 3.32217 6.34403 3.51496 6.42563 3.7398L8.08314 8.25011H15.9169L17.5744 3.73793C17.6562 3.51312 17.8078 3.32042 18.0071 3.18809C18.2064 3.05576 18.4428 2.99075 18.6818 3.00259C18.9207 3.01444 19.1495 3.10252 19.3347 3.25392C19.52 3.40532 19.6518 3.61207 19.7109 3.84386L21.5766 10.9801C21.8508 12.0294 21.8004 13.1371 21.432 14.1571C21.0636 15.1771 20.3945 16.0614 19.5131 16.6932Z" fill="white"/>
</svg>
