<svg width="24" height="24" viewBox="0 0 24 24" fill="none" xmlns="http://www.w3.org/2000/svg">
<path d="M12.75 12C12.75 13.1867 12.3981 14.3467 11.7388 15.3334C11.0795 16.3201 10.1425 17.0892 9.0461 17.5433C7.94975 17.9974 6.74335 18.1162 5.57946 17.8847C4.41558 17.6532 3.34648 17.0818 2.50736 16.2426C1.66825 15.4035 1.0968 14.3344 0.865291 13.1705C0.63378 12.0067 0.7526 10.8003 1.20673 9.7039C1.66085 8.60754 2.42989 7.67047 3.41658 7.01118C4.40328 6.35189 5.56332 6 6.75 6C8.34077 6.00174 9.86588 6.63444 10.9907 7.75928C12.1156 8.88412 12.7483 10.4092 12.75 12ZM17.25 6C16.7175 6 15.7125 6.25875 14.97 7.99219C14.5059 9.075 14.25 10.5 14.25 12C14.25 13.5 14.5059 14.925 14.97 16.0078C15.7125 17.7413 16.7175 18 17.25 18C17.7825 18 18.7875 17.7413 19.53 16.0078C19.9941 14.925 20.25 13.5 20.25 12C20.25 10.5 19.9941 9.075 19.53 7.99219C18.7875 6.25875 17.7825 6 17.25 6ZM22.5 6C22.3011 6 22.1103 6.07902 21.9697 6.21967C21.829 6.36032 21.75 6.55109 21.75 6.75V17.25C21.75 17.4489 21.829 17.6397 21.9697 17.7803C22.1103 17.921 22.3011 18 22.5 18C22.6989 18 22.8897 17.921 23.0303 17.7803C23.171 17.6397 23.25 17.4489 23.25 17.25V6.75C23.25 6.55109 23.171 6.36032 23.0303 6.21967C22.8897 6.07902 22.6989 6 22.5 6Z" fill="white"/>
</svg>
