<svg width="40" height="35" viewBox="0 0 40 35" fill="none" xmlns="http://www.w3.org/2000/svg">
<g clip-path="url(#clip0_2005_615)">
<path d="M19.9999 21.0061C21.9689 21.0061 23.5651 19.4363 23.5651 17.4999C23.5651 15.5635 21.9689 13.9937 19.9999 13.9937C18.0309 13.9937 16.4347 15.5635 16.4347 17.4999C16.4347 19.4363 18.0309 21.0061 19.9999 21.0061Z" fill="#61DAFB"/>
<path d="M38.2609 17.5005C38.2609 16.835 37.9051 16.103 37.0448 15.3391C36.1844 14.5752 34.8896 13.8477 33.2167 13.2196C29.8769 11.9655 25.2044 11.1718 20 11.1718C14.7956 11.1718 10.1231 11.9655 6.78329 13.2196C5.11037 13.8477 3.81562 14.5752 2.95516 15.3391C2.09492 16.103 1.73913 16.835 1.73913 17.5005C1.73925 18.1659 2.09482 18.898 2.95516 19.6618C3.81562 20.4257 5.11037 21.1532 6.78329 21.7814C10.1231 23.0354 14.7958 23.8292 20 23.8292C25.2042 23.8292 29.8769 23.0354 33.2167 21.7814C34.8896 21.1532 36.1844 20.4257 37.0448 19.6618C37.9052 18.898 38.2607 18.1659 38.2609 17.5005ZM40 17.5005C39.9999 18.8184 39.2854 19.9764 38.2099 20.9312C37.1343 21.8862 35.6256 22.7064 33.8366 23.3782C30.2527 24.7238 25.3606 25.5395 20 25.5395C14.6394 25.5395 9.74733 24.7238 6.16338 23.3782C4.37437 22.7064 2.86573 21.8862 1.79008 20.9312C0.714633 19.9764 0.000120858 18.8184 0 17.5005C0 16.1825 0.714731 15.0245 1.79008 14.0697C2.86573 13.1148 4.37437 12.2929 6.16338 11.6211C9.7473 10.2755 14.6395 9.46143 20 9.46143C25.3605 9.46143 30.2527 10.2755 33.8366 11.6211C35.6256 12.2929 37.1343 13.1148 38.2099 14.0697C39.2853 15.0245 40 16.1825 40 17.5005Z" fill="#61DAFB"/>
<path d="M29.1301 33.0531C29.716 32.7204 30.1828 32.0513 30.4253 30.9367C30.6678 29.8219 30.661 28.3555 30.3777 26.6165C29.8121 23.145 28.1748 18.7685 25.5726 14.336C22.9704 9.90342 19.9352 6.32068 17.161 4.10317C15.7714 2.99244 14.4834 2.25345 13.3805 1.90254C12.2777 1.5518 11.4552 1.6148 10.8692 1.94752C10.2833 2.28034 9.8164 2.94921 9.57395 4.06388C9.33149 5.17869 9.33824 6.64517 9.62153 8.38409C10.1872 11.8556 11.8245 16.2322 14.4266 20.6647C17.0288 25.0971 20.0641 28.6799 22.8382 30.8975C24.2279 32.0082 25.5159 32.7472 26.6188 33.0981C27.7216 33.4489 28.544 33.3857 29.1301 33.0531ZM29.9996 34.5343C28.839 35.1932 27.462 35.1637 26.0835 34.7251C24.7048 34.2864 23.2281 33.4116 21.7421 32.2238C18.7651 29.8442 15.6008 26.0855 12.9205 21.5198C10.2402 16.9542 8.51245 12.3798 7.90546 8.65451C7.60252 6.79492 7.57049 5.09989 7.87358 3.70629C8.17662 2.31294 8.83909 1.12539 9.99963 0.466299C11.1602 -0.192689 12.5373 -0.162938 13.9158 0.275538C15.2945 0.714194 16.7726 1.58816 18.2586 2.77597C21.2355 5.15559 24.3985 8.91528 27.0787 13.4808C29.759 18.0463 31.4882 22.6201 32.0953 26.3453C32.3982 28.2049 32.4288 29.9007 32.1257 31.2943C31.8226 32.6876 31.1602 33.8753 29.9996 34.5343Z" fill="#61DAFB"/>
<path d="M10.8692 33.0526C11.4552 33.3854 12.2777 33.4484 13.3805 33.0976C14.4834 32.7467 15.7714 32.0077 17.161 30.897C19.9352 28.6795 22.9704 25.0967 25.5726 20.6642C28.1748 16.2316 29.8121 11.8552 30.3777 8.38362C30.661 6.6447 30.6678 5.17822 30.4253 4.06341C30.1828 2.94882 29.716 2.27977 29.1301 1.94705C28.544 1.61443 27.7216 1.55123 26.6188 1.90207C25.5159 2.25298 24.2279 2.99197 22.8382 4.1027C20.0641 6.32022 17.0288 9.90305 14.4266 14.3355C11.8245 18.768 10.1872 23.1445 9.62153 26.6161C9.33824 28.355 9.33149 29.8215 9.57395 30.9363C9.8164 32.051 10.2833 32.7198 10.8692 33.0526ZM9.99963 34.5339C8.83909 33.8748 8.17662 32.6872 7.87358 31.2939C7.57048 29.9003 7.60252 28.2052 7.90546 26.3456C8.51245 22.6204 10.2402 18.046 12.9205 13.4803C15.6008 8.91467 18.7651 5.15595 21.7421 2.77633C23.2281 1.58852 24.7048 0.713724 26.0835 0.275068C27.462 -0.163503 28.839 -0.193055 29.9996 0.465829C31.1602 1.12482 31.8226 2.31254 32.1257 3.70582C32.4288 5.09942 32.3982 6.79529 32.0953 8.65488C31.4882 12.3801 29.759 16.9539 27.0787 21.5194C24.3985 26.0849 21.2355 29.8446 18.2586 32.2242C16.7726 33.412 15.2945 34.286 13.9158 34.7246C12.5373 35.1631 11.1602 35.1928 9.99963 34.5339Z" fill="#61DAFB"/>
</g>
<defs>
<clipPath id="clip0_2005_615">
<rect width="40" height="35" fill="white"/>
</clipPath>
</defs>
</svg>
